<?xml version="1.0" standalone="no"?>
<!DOCTYPE svg PUBLIC "-//W3C//DTD SVG 20010904//EN"
 "http://www.w3.org/TR/2001/REC-SVG-20010904/DTD/svg10.dtd">
<svg version="1.0" xmlns="http://www.w3.org/2000/svg"
 width="784.000000pt" height="1168.000000pt" viewBox="0 0 784.000000 1168.000000"
 preserveAspectRatio="xMidYMid meet">

<g transform="translate(0.000000,1168.000000) scale(0.100000,-0.100000)"
fill="#000000" stroke="none">
<path d="M0 5840 l0 -5840 3920 0 3920 0 0 5840 0 5840 -3920 0 -3920 0 0
-5840z m4135 2815 c172 -18 285 -38 429 -75 654 -169 1232 -561 1636 -1108
344 -466 545 -1028 567 -1584 l6 -158 -62 0 -61 0 0 63 c0 154 -35 420 -80
601 -219 890 -832 1603 -1683 1955 -182 75 -439 143 -672 178 -150 22 -570 25
-715 5 -565 -77 -1044 -289 -1475 -650 -634 -531 -1005 -1328 -1005 -2157 0
-868 408 -1689 1091 -2199 52 -39 108 -80 124 -91 l28 -20 -27 -53 -26 -52
-74 50 c-325 219 -627 541 -835 890 -197 331 -316 673 -378 1085 -25 170 -25
610 0 780 90 607 334 1132 734 1580 99 111 231 233 374 347 421 334 958 555
1489 612 168 18 444 19 615 1z m24 -270 c495 -62 949 -253 1346 -565 124 -98
351 -332 451 -465 120 -160 193 -280 280 -460 161 -333 243 -655 260 -1023 l7
-142 -244 2 -244 3 -7 135 c-4 74 -13 169 -21 210 -9 41 -12 78 -9 81 4 3 44
14 89 24 45 10 86 21 91 24 13 8 3 71 -12 71 -6 0 -45 -9 -86 -20 -89 -23
-110 -25 -110 -7 0 24 -79 256 -117 345 -20 47 -32 87 -27 89 5 2 82 42 171
89 l161 86 -35 61 c-20 34 -37 63 -38 65 -2 2 -68 -34 -146 -81 -79 -46 -154
-89 -166 -95 -19 -11 -24 -8 -49 36 -39 69 -172 250 -221 303 l-44 47 71 68
c40 38 76 71 81 72 16 6 10 28 -14 50 l-23 22 -74 -75 c-41 -41 -78 -75 -83
-75 -5 0 -46 35 -91 77 -44 42 -126 110 -181 151 -55 41 -99 81 -99 87 1 7 45
79 98 160 53 81 96 148 94 150 -11 8 -119 75 -122 75 -2 0 -46 -71 -97 -157
-51 -87 -94 -160 -95 -161 -1 -2 -58 23 -126 56 -68 33 -166 75 -218 93 -52
18 -98 35 -102 38 -3 3 7 51 22 106 16 55 26 103 22 107 -4 4 -19 10 -34 13
-25 6 -28 4 -38 -37 -26 -99 -43 -163 -46 -166 -1 -2 -44 6 -96 17 -51 11
-145 25 -208 31 -63 7 -130 14 -148 16 l-33 5 3 184 c2 147 0 186 -10 190 -8
3 -41 5 -74 5 l-61 0 6 -190 5 -189 -41 -5 c-23 -3 -91 -10 -151 -17 -60 -6
-147 -19 -195 -29 -47 -10 -88 -17 -91 -15 -3 2 -19 49 -35 105 -29 97 -31
101 -55 95 -14 -4 -29 -10 -33 -14 -5 -5 5 -54 21 -110 21 -71 27 -104 19
-106 -107 -35 -235 -89 -326 -136 -63 -32 -115 -58 -116 -56 -1 1 -46 72 -100
157 -53 85 -99 157 -100 159 -9 8 -124 -73 -118 -83 4 -6 51 -76 106 -156 l98
-145 -27 -20 c-123 -90 -178 -134 -260 -210 l-95 -87 -80 78 -80 78 -24 -30
-24 -29 79 -78 79 -79 -61 -71 c-58 -69 -210 -289 -220 -317 -5 -15 -95 28
-262 124 l-80 45 -33 -60 c-18 -32 -33 -63 -33 -67 0 -4 66 -40 148 -81 81
-40 157 -79 169 -87 l22 -14 -34 -72 c-29 -64 -96 -252 -121 -344 l-9 -31 -95
23 c-52 13 -98 20 -101 16 -4 -4 -10 -21 -13 -38 l-7 -31 98 -20 98 -19 -1
-34 c0 -19 -6 -78 -12 -130 -6 -52 -14 -144 -17 -205 l-4 -110 -188 -5 -188
-5 3 -75 c2 -41 5 -76 5 -76 1 -1 83 5 182 13 99 7 185 11 192 9 7 -3 13 -18
13 -34 0 -45 39 -249 66 -344 13 -48 24 -89 24 -92 0 -2 -43 -19 -95 -36 -52
-17 -95 -33 -95 -34 0 -14 24 -66 30 -66 5 0 46 14 91 30 45 17 86 29 91 28 5
-2 30 -53 57 -114 26 -61 73 -153 104 -205 42 -72 53 -97 44 -106 -7 -6 -70
-50 -142 -97 -71 -46 -139 -91 -149 -99 -19 -13 -18 -16 24 -75 38 -55 45 -61
59 -49 37 32 290 207 298 207 5 0 42 -41 83 -91 85 -103 175 -191 288 -280 42
-34 79 -63 80 -64 2 -2 -32 -81 -76 -177 -111 -241 -125 -268 -135 -268 -31 0
-288 209 -411 334 -734 751 -942 1874 -531 2867 135 326 326 608 587 866 150
149 219 205 411 334 522 350 1162 502 1786 424z m-379 -655 c0 -26 -4 -30 -37
-36 -48 -8 -70 -20 -82 -42 -8 -15 -4 -17 40 -14 45 4 52 1 84 -31 25 -25 35
-44 35 -66 0 -130 -173 -179 -240 -68 -22 36 -27 118 -9 164 23 63 109 122
177 123 29 0 32 -3 32 -30z m250 15 c93 -48 94 -272 1 -319 -96 -50 -180 24
-181 158 0 133 86 210 180 161z m-1235 -350 c0 -28 -3 -30 -42 -36 -44 -5 -68
-20 -84 -51 -9 -17 -8 -18 10 -9 11 6 36 11 56 11 50 0 105 -53 105 -101 0
-117 -148 -172 -227 -85 -33 35 -38 57 -33 131 3 37 31 93 62 122 29 28 94 53
128 50 21 -2 25 -7 25 -32z m249 21 c97 -40 102 -271 7 -320 -41 -21 -79 -20
-119 4 -42 26 -62 73 -62 149 0 68 12 106 43 140 39 42 77 50 131 27z m1646
-1 c54 -28 67 -89 27 -129 l-23 -23 27 -15 c53 -31 46 -112 -13 -148 -58 -35
-172 -19 -197 28 -19 35 -13 77 15 107 l25 27 -20 22 c-73 78 57 184 159 131z
m275 1 c49 -21 75 -77 75 -161 0 -81 -19 -129 -62 -155 -57 -35 -126 -20 -163
36 -20 30 -31 125 -21 178 8 39 48 93 80 106 31 13 53 12 91 -4z m-1123 -714
c2 -70 2 -174 0 -232 l-4 -105 -49 3 -49 4 0 228 c0 152 4 230 11 232 5 2 27
2 48 0 l39 -4 4 -126z m-594 86 l3 -37 -93 -3 -93 -3 -3 -52 -3 -53 85 0 85 0
7 -34 c3 -19 3 -39 -1 -45 -3 -7 -42 -11 -91 -11 l-85 0 2 -85 c1 -47 0 -87
-2 -89 -2 -2 -25 -6 -51 -9 l-48 -7 0 235 0 236 143 -3 142 -3 3 -37z m321
-85 c22 -71 56 -174 75 -230 l35 -103 -59 0 -58 0 -19 58 -20 57 -65 3 -66 3
-14 -58 -14 -58 -49 -6 c-28 -3 -53 -5 -57 -3 -6 4 -2 19 72 274 62 211 48
190 129 190 l70 0 40 -127z m691 82 l0 -45 -65 0 -65 0 0 -185 0 -185 -50 0
-50 0 -2 188 -3 187 -60 0 -60 0 -3 43 -3 42 180 0 181 0 0 -45z m170 -45 l0
-90 85 0 85 0 0 90 0 90 55 0 55 0 0 -230 0 -230 -55 0 -55 0 0 95 0 95 -85 0
-85 0 0 -95 0 -95 -55 0 -55 0 0 230 0 230 55 0 55 0 0 -90z m-2290 -200 c0
-93 1 -100 20 -100 16 0 20 -7 20 -30 0 -23 -4 -30 -20 -30 -14 0 -20 -7 -20
-24 0 -44 -10 -56 -46 -56 -33 0 -34 1 -34 40 l0 40 -75 0 c-72 0 -75 1 -75
23 0 13 28 71 63 130 l62 106 53 1 52 0 0 -100z m251 84 c92 -47 90 -257 -3
-314 -92 -56 -179 19 -180 155 -1 137 84 211 183 159z m2729 -154 l0 -170 -35
0 c-31 0 -35 3 -35 28 -1 102 -7 222 -12 227 -3 4 -16 1 -28 -5 -24 -13 -40
-1 -40 31 0 20 76 58 118 58 l32 1 0 -170z m305 148 c38 -30 55 -76 55 -150
-1 -83 -26 -139 -73 -161 -51 -25 -82 -21 -121 14 -74 64 -76 217 -5 289 39
38 101 42 144 8z m285 2 c36 -26 60 -87 60 -155 0 -65 -12 -101 -47 -137 -55
-58 -145 -42 -182 31 -26 50 -28 143 -4 202 29 73 113 101 173 59z m-726 -205
c16 -25 16 -25 -46 -72 -34 -27 -113 -91 -177 -143 -64 -53 -237 -195 -386
-317 l-270 -221 -18 -62 c-14 -48 -28 -72 -65 -109 -133 -133 -342 -97 -430
73 -31 61 -36 167 -10 227 22 50 84 116 132 141 47 24 142 35 183 21 25 -9 48
-1 203 76 96 47 256 124 355 171 98 47 249 120 335 162 85 42 160 77 166 77 7
1 19 -10 28 -24z m-3009 -705 c30 -28 40 -75 25 -115 -6 -17 -34 -54 -63 -82
l-51 -53 62 0 62 0 0 -30 0 -30 -120 0 c-120 0 -120 0 -120 24 0 16 19 40 64
80 35 30 71 72 80 91 16 33 16 38 2 61 -19 27 -48 31 -89 9 -26 -14 -28 -13
-37 11 -13 34 -14 33 23 50 47 21 131 13 162 -16z m266 14 c80 -41 94 -226 23
-298 -87 -87 -210 -1 -207 145 3 129 91 202 184 153z m1491 -1576 l3 -993 660
-8 c363 -4 761 -8 885 -10 l225 -2 -3 -67 -4 -67 -216 -3 c-119 -2 -528 -1
-909 2 -682 5 -692 5 -720 26 -15 11 -38 36 -50 54 l-23 33 0 954 c0 1028 -2
979 52 1030 23 22 62 41 85 42 10 1 13 -207 15 -991z m3145 963 c76 -55 72 2
72 -1028 0 -505 -4 -935 -9 -957 -9 -42 -58 -98 -99 -115 -17 -8 -159 -10
-436 -9 l-409 3 -1 72 0 73 398 0 397 0 0 995 0 995 23 0 c13 0 42 -13 64 -29z
m-4475 -340 c31 -35 52 -123 42 -178 -14 -79 -51 -122 -112 -130 -52 -7 -94
16 -118 64 -25 51 -26 164 -1 211 41 76 135 93 189 33z m3526 -1865 c1 -223
-1 -406 -6 -406 -4 0 -43 41 -86 90 -43 50 -81 90 -86 90 -4 0 -43 -39 -86
-87 -42 -49 -81 -90 -86 -91 -4 -2 -7 178 -6 400 l3 403 45 5 c25 3 104 4 175
3 l130 -2 3 -405z"/>
<path d="M3662 7574 c-39 -27 -23 -104 22 -104 50 0 73 63 36 100 -24 24 -29
24 -58 4z"/>
<path d="M3949 7684 c-17 -21 -24 -140 -10 -177 15 -38 40 -46 63 -18 14 18
18 40 18 95 0 97 -34 145 -71 100z"/>
<path d="M2683 7248 c-30 -14 -37 -41 -21 -75 15 -32 58 -43 77 -19 18 21 10
76 -14 91 -15 10 -26 10 -42 3z"/>
<path d="M2966 7348 c-11 -15 -16 -44 -16 -90 0 -81 15 -120 44 -116 30 4 46
44 46 113 0 96 -39 144 -74 93z"/>
<path d="M4605 7367 c-20 -16 -17 -56 7 -70 12 -8 21 -7 32 2 38 32 1 96 -39
68z"/>
<path d="M4596 7214 c-22 -21 -20 -47 4 -69 17 -15 24 -16 45 -7 30 14 33 51
7 75 -23 21 -36 21 -56 1z"/>
<path d="M4895 7356 c-30 -22 -35 -161 -8 -195 39 -48 73 -3 73 97 0 56 -15
102 -35 109 -6 2 -20 -3 -30 -11z"/>
<path d="M3431 6664 c-12 -48 -19 -90 -14 -93 4 -4 26 -4 48 -1 l40 5 -25 88
-26 87 -23 -86z"/>
<path d="M2025 6507 c-16 -28 -31 -55 -33 -59 -2 -5 12 -8 32 -8 l36 0 0 60
c0 33 -1 60 -2 60 -2 0 -16 -24 -33 -53z"/>
<path d="M2308 6563 c-34 -39 -29 -173 7 -200 37 -27 65 21 65 111 0 84 -37
129 -72 89z"/>
<path d="M5329 6564 c-7 -9 -15 -45 -17 -80 -7 -101 26 -156 68 -114 16 16 20
34 20 93 0 98 -33 146 -71 101z"/>
<path d="M5616 6558 c-10 -15 -16 -44 -16 -85 0 -80 12 -113 43 -113 32 0 47
36 47 108 0 93 -39 140 -74 90z"/>
<path d="M2156 5658 c-25 -35 -22 -162 4 -188 39 -39 70 8 70 104 0 87 -40
133 -74 84z"/>
<path d="M2289 4734 c-7 -9 -15 -41 -17 -72 -8 -108 28 -172 69 -123 27 33 28
170 1 194 -23 21 -36 21 -53 1z"/>
</g>
</svg>
