<?xml version="1.0" encoding="UTF-8"?>
<svg id="Layer_2" data-name="Layer 2" xmlns="http://www.w3.org/2000/svg" viewBox="0 0 164.47 51.47">
  <defs>
    <style>
      .cls-1 {
        fill: #585858;
      }

      .cls-1, .cls-2 {
        stroke-width: 0px;
      }

      .cls-2 {
        fill: #fff;
      }
    </style>
  </defs>
  <g id="Layer_1-2" data-name="Layer 1">
    <g>
      <g>
        <path class="cls-2" d="M0,26.09c0-6.19,3.8-11.15,10.59-11.15,2.87,0,6,1.25,8.28,4.14l-3.01,2.68c-1.23-1.49-3.1-2.74-5.26-2.74-3.6,0-6.29,2.74-6.29,7.07,0,4.02,2.57,6.92,6.29,6.92,2.16,0,4.04-1.16,5.26-2.74l3.01,2.71c-1.78,2.32-4.59,4.08-8.28,4.08-5.67,0-10.59-3.84-10.59-10.97Z"/>
        <path class="cls-2" d="M23.4,15.21h4.12v17.83h9.24v3.81h-13.37V15.21Z"/>
        <path class="cls-2" d="M39.73,26.03c0-6.43,4.3-11.09,10.59-11.09s10.56,4.48,10.56,11.09-4.45,11.06-10.56,11.06-10.59-4.66-10.59-11.06ZM56.61,26.03c0-4.08-2.69-7.07-6.26-7.07-3.74,0-6.35,3.14-6.35,7.07s2.6,7.07,6.35,7.07,6.26-3.02,6.26-7.07Z"/>
        <path class="cls-2" d="M64.6,33.68l2.46-3.17c1.55,1.89,3.54,2.71,5.18,2.71,1.99,0,2.98-.94,2.98-2.29,0-1.58-1.11-2.16-3.63-3.05-3.13-1.16-6.26-2.68-6.26-6.76,0-3.47,2.93-6.12,6.67-6.19,2.57-.03,4.97.97,6.99,2.74l-2.37,3.23c-1.73-1.49-3.25-2.13-4.53-2.13-1.43,0-2.49.79-2.49,2.16-.03,1.34,1.11,1.92,3.48,2.89,3.6,1.46,6.44,2.44,6.44,6.61,0,4.72-3.95,6.64-7.34,6.64-2.69,0-5.41-1.07-7.58-3.41Z"/>
        <path class="cls-2" d="M84.31,15.21h13.28v3.84h-9.24v5.18h7.4v3.78h-7.4v5.03h9.86v3.81h-13.89V15.21Z"/>
      </g>
      <g>
        <circle class="cls-1" cx="138.73" cy="25.74" r="24.74"/>
        <path class="cls-2" d="M138.73,51.47c-14.19,0-25.74-11.54-25.74-25.74S124.54,0,138.73,0s25.74,11.55,25.74,25.74-11.54,25.74-25.74,25.74ZM138.73,2c-13.09,0-23.74,10.65-23.74,23.74s10.65,23.74,23.74,23.74,23.74-10.65,23.74-23.74-10.65-23.74-23.74-23.74Z"/>
      </g>
      <path class="cls-2" d="M131.89,34.26c-.22.22-.45.43-.76.53h-.57c-.06-.03-.11-.05-.17-.08-.74-.32-.95-1.27-.4-1.87.05-.05.1-.1.15-.15,2.26-2.26,4.52-4.52,6.78-6.79.05-.05.1-.08.2-.17-.09-.06-.16-.09-.21-.14-2.28-2.28-4.57-4.56-6.85-6.85-.47-.47-.52-1.1-.15-1.6.41-.53,1.19-.61,1.69-.17.08.07.16.15.24.23,2.24,2.24,4.47,4.47,6.71,6.71.05.05.09.11.14.18.08-.07.13-.12.18-.17,2.28-2.28,4.56-4.56,6.83-6.84.35-.35.75-.49,1.24-.35.37.11.62.36.76.73.02.05.04.1.07.16v.46c-.1.37-.36.62-.62.88-2.21,2.21-4.42,4.41-6.62,6.62-.05.05-.09.1-.16.16.06.05.11.08.15.12,2.22,2.22,4.43,4.43,6.65,6.65.26.26.5.51.6.87v.46c-.14.45-.43.76-.88.92h-.57c-.32-.1-.55-.32-.78-.55-2.22-2.23-4.44-4.45-6.67-6.67-.05-.05-.1-.09-.17-.17"/>
    </g>
  </g>
</svg>