<?xml version="1.0" encoding="UTF-8"?>
<svg width="32px" height="32px" viewBox="0 0 32 32" version="1.1" xmlns="http://www.w3.org/2000/svg" xmlns:xlink="http://www.w3.org/1999/xlink">
    <title>education</title>
    <g id="🧠-Symbols" stroke="none" stroke-width="1" fill="none" fill-rule="evenodd">
        <g id="education" fill="#333333">
            <rect id="boundbox" opacity="0" x="0" y="0" width="32" height="32"></rect>
            <g transform="translate(0.750000, 6.787500)" fill-rule="nonzero" id="Shape">
                <path d="M29.1,4.225 L16.6,0.225 C15.7,-0.075 14.8,-0.075 13.9,0.225 L1.5,4.225 C0.6,4.525 0,5.325 0,6.225 C0,7.125 0.6,7.925 1.5,8.225 L2.6,8.625 C2.5,8.825 2.4,9.025 2.4,9.225 C1.8,9.525 1.5,10.125 1.5,10.725 C1.5,11.325 1.8,11.925 2.3,12.225 L1.6,17.225 C1.5,17.525 1.6,17.925 1.8,18.125 C1.9,18.325 2.1,18.425 2.3,18.425 L4.3,18.425 C4.5,18.425 4.7,18.325 4.8,18.125 C5,17.925 5.1,17.525 5,17.225 L4.2,12.225 C4.7,11.925 5,11.325 5,10.725 C5,10.225 4.8,9.825 4.4,9.425 C4.4,9.325 4.5,9.325 4.5,9.225 L6.6,9.925 L6.1,15.225 C6.1,17.025 10.2,18.425 15.3,18.425 C20.4,18.425 24.5,17.025 24.5,15.125 L23.8,9.825 L29,8.125 C29.9,7.825 30.5,7.025 30.5,6.125 C30.5,5.225 30,4.525 29.1,4.225 Z M16,10.325 C15.5,10.525 15,10.525 14.5,10.325 L7.3,8.025 L15.5,6.525 C15.8,6.525 16,6.325 16.1,6.125 C16.3,5.925 16.3,5.625 16.3,5.425 C16.3,5.125 16.1,4.925 15.9,4.825 C15.7,4.625 15.4,4.625 15.2,4.625 L5.7,6.425 C5.2,6.525 4.6,6.725 4.2,7.125 L2.3,6.525 C2.2,6.525 2.2,6.425 2.2,6.425 C2.2,6.425 2.2,6.325 2.3,6.325 L14.7,2.325 C15.3,2.125 15.8,2.225 16.2,2.325 L28.6,6.325 C28.7,6.325 28.7,6.425 28.7,6.425 C28.7,6.425 28.7,6.525 28.6,6.525 L16,10.325 Z M8.7,10.525 L14,12.225 C14.4,12.325 15.4,12.625 16.7,12.225 L22,10.525 L22.6,15.025 C22,15.525 19.5,16.425 15.4,16.425 C11.2,16.425 8.8,15.525 8.2,15.025 L8.7,10.525 Z"></path>
            </g>
        </g>
    </g>
</svg>