<?xml version="1.0" encoding="UTF-8"?>
<svg width="32px" height="32px" viewBox="0 0 32 32" version="1.1" xmlns="http://www.w3.org/2000/svg" xmlns:xlink="http://www.w3.org/1999/xlink">
    <title>employment</title>
    <g id="🧠-Symbols" stroke="none" stroke-width="1" fill="none" fill-rule="evenodd">
        <g id="employment" fill="#333333">
            <rect id="boundbox" opacity="0" x="0" y="0" width="32" height="32"></rect>
            <g transform="translate(1.000000, 3.000000)">
                <path d="M29.8,8.4 L29.8,23.3 C29.8,24.8 28.6,26.1 27,26.1 L2.8,26.1 C1.3,26.1 0,24.9 0,23.3 L0,8.4 C0,6.9 1.2,5.6 2.8,5.6 L9.3,5.6 L9.3,2.8 C9.3,1.3 10.5,0 12.1,0 L17.7,0 C19.2,0 20.5,1.2 20.5,2.8 L20.5,5.6 L27,5.6 C28.5,5.6 29.8,6.8 29.8,8.4 Z M11.2,5.6 L18.6,5.6 L18.6,2.8 C18.6,2.3 18.2,1.9 17.7,1.9 L12.1,1.9 C11.6,1.9 11.2,2.3 11.2,2.8 L11.2,5.6 L11.2,5.6 Z M27,24.1 C27.5,24.1 27.9,23.7 27.9,23.2 L27.9,8.4 C27.9,7.9 27.5,7.5 27,7.5 L2.8,7.5 C2.3,7.5 1.9,7.9 1.9,8.4 L1.9,23.3 C1.9,23.8 2.3,24.2 2.8,24.2 L5.6,24.2 L27,24.2 L27,24.1 Z" id="Shape" fill-rule="nonzero"></path>
                <path d="M20.7,16 L9.1,16 C8.9,16 8.7,15.9 8.5,15.8 L0.8,10.4 C0.3,10.1 0.2,9.5 0.6,9 C1,8.5 1.5,8.4 2,8.8 L9.5,14 L20.5,14 L28,8.8 C28.5,8.5 29.1,8.6 29.4,9 C29.7,9.5 29.6,10.1 29.2,10.4 L21.5,15.8 C21.1,15.9 20.9,16 20.7,16 Z" id="Path" fill-rule="nonzero"></path>
                <path d="M16.6,17 L13.2,17 C12.6,17 12.2,16.6 12.2,16 L12.2,14.2 C12.2,13.6 12.6,13.2 13.2,13.2 L16.6,13.2 C17.2,13.2 17.6,13.6 17.6,14.2 L17.6,16 C17.6,16.5 17.1,17 16.6,17 Z" id="Path"></path>
                <path d="M6.1,25.6 C5.7,25.6 5.3,25.3 5.3,24.8 L5.3,13.2 C5.3,12.8 5.6,12.4 6.1,12.4 C6.6,12.4 6.9,12.8 6.9,13.2 L6.9,24.8 C6.9,25.2 6.5,25.6 6.1,25.6 Z" id="Path" fill-rule="nonzero"></path>
                <path d="M23.6,25.6 C23.2,25.6 22.8,25.3 22.8,24.8 L22.8,13.2 C22.8,12.8 23.1,12.4 23.6,12.4 C24.1,12.4 24.4,12.7 24.4,13.2 L24.4,24.8 C24.4,25.2 24,25.6 23.6,25.6 Z" id="Path" fill-rule="nonzero"></path>
            </g>
        </g>
    </g>
</svg>