<?xml version="1.0" encoding="UTF-8"?>
<svg width="32px" height="32px" viewBox="0 0 32 32" version="1.1" xmlns="http://www.w3.org/2000/svg" xmlns:xlink="http://www.w3.org/1999/xlink">
    <title>health</title>
    <g id="🧠-Symbols" stroke="none" stroke-width="1" fill="none" fill-rule="evenodd">
        <g id="health" fill="#333333">
            <rect id="boundbox" opacity="0" x="0" y="0" width="32" height="32"></rect>
            <g transform="translate(1.000000, 3.000000)" fill-rule="nonzero">
                <path d="M27,5.6 L20.5,5.6 L20.5,2.8 C20.5,1.3 19.3,1.77635684e-15 17.7,1.77635684e-15 L12.1,1.77635684e-15 C10.6,1.77635684e-15 9.3,1.2 9.3,2.8 L9.3,5.6 L2.8,5.6 C1.3,5.6 0,6.8 0,8.4 L0,23.3 C0,24.8 1.2,26.1 2.8,26.1 L26.9,26.1 C28.4,26.1 29.7,24.9 29.7,23.3 L29.7,8.4 C29.8,6.8 28.5,5.6 27,5.6 Z M11.2,2.8 C11.2,2.3 11.6,1.9 12.1,1.9 L17.7,1.9 C18.2,1.9 18.6,2.3 18.6,2.8 L18.6,5.6 L11.2,5.6 L11.2,2.8 L11.2,2.8 Z M23.9,7.4 L23.9,24.1 L5.9,24.1 L5.9,7.4 L23.9,7.4 Z M1.9,23.2 L1.9,8.4 C1.9,7.9 2.3,7.5 2.8,7.5 L3.9,7.5 L3.9,24.2 L2.8,24.2 C2.3,24.1 1.9,23.7 1.9,23.2 Z M27.9,23.2 C27.9,23.7 27.5,24.1 27,24.1 L25.9,24.1 L25.9,7.4 L27,7.4 C27.5,7.4 27.9,7.8 27.9,8.3 L27.9,23.2 Z" id="Shape"></path>
                <path d="M10.3,16.9 L13.6,16.9 L13.6,20.2 C13.6,20.9 14.2,21.5 14.9,21.5 C15.6,21.5 16.2,20.9 16.2,20.2 L16.2,16.9 L19.5,16.9 C20.2,16.9 20.8,16.3 20.8,15.6 C20.8,14.9 20.2,14.3 19.5,14.3 L16.2,14.3 L16.2,11 C16.2,10.3 15.6,9.7 14.9,9.7 C14.2,9.7 13.6,10.3 13.6,11 L13.6,14.3 L10.3,14.3 C9.6,14.3 9,14.9 9,15.6 C8.9,16.3 9.5,16.9 10.3,16.9 Z" id="Path"></path>
            </g>
        </g>
    </g>
</svg>