<?xml version="1.0" encoding="UTF-8"?>
<svg width="32px" height="32px" viewBox="0 0 32 32" version="1.1" xmlns="http://www.w3.org/2000/svg" xmlns:xlink="http://www.w3.org/1999/xlink">
    <title>housing</title>
    <g id="🧠-Symbols" stroke="none" stroke-width="1" fill="none" fill-rule="evenodd">
        <g id="housing" fill="#333333">
            <rect id="boundbox" opacity="0" x="0" y="0" width="32" height="32"></rect>
            <g transform="translate(1.000000, 6.000000)" id="Path">
                <path d="M20.8,20.125 C20.2,20.125 19.7,19.625 19.7,19.025 L19.7,9.125 L14.9,5.625 L10.2,9.025 L10.2,18.925 C10.2,19.525 9.7,20.025 9.1,20.025 C8.5,20.025 8,19.625 8,19.025 L8,8.525 C8,8.125 8.2,7.825 8.5,7.625 L14.3,3.325 C14.7,3.025 15.2,3.025 15.6,3.325 L21.4,7.625 C21.7,7.825 21.9,8.125 21.9,8.525 L21.9,19.025 C21.9,19.625 21.4,20.125 20.8,20.125 Z" fill-rule="nonzero"></path>
                <path d="M1.1,16.025 C0.5,16.025 0,15.525 0,14.925 L0,5.425 C0,5.025 0.2,4.725 0.5,4.525 L6.3,0.225 C6.7,-0.075 7.2,-0.075 7.6,0.225 L11.2,2.825 C11.7,3.225 11.8,3.925 11.4,4.425 C11,4.925 10.3,5.025 9.8,4.625 L7,2.525 L2.3,5.925 L2.3,14.825 C2.2,15.525 1.7,16.025 1.1,16.025 Z" fill-rule="nonzero"></path>
                <path d="M28.9,16.025 C28.3,16.025 27.8,15.525 27.8,14.925 L27.8,6.025 L23,2.525 L20,4.725 C19.5,5.125 18.8,5.025 18.4,4.525 C18,4.025 18.1,3.325 18.6,2.925 L22.3,0.225 C22.7,-0.075 23.2,-0.075 23.6,0.225 L29.4,4.525 C29.7,4.725 29.9,5.025 29.9,5.425 L29.9,14.925 C30,15.525 29.5,16.025 28.9,16.025 Z" fill-rule="nonzero"></path>
                <path d="M15.9,20.125 L14,20.125 C13.6,20.125 13.2,19.825 13.2,19.325 L13.2,15.425 C13.2,15.025 13.5,14.625 14,14.625 L15.9,14.625 C16.3,14.625 16.7,14.925 16.7,15.425 L16.7,19.325 C16.6,19.825 16.3,20.125 15.9,20.125 Z"></path>
                <path d="M7.3,16.025 L5.5,16.025 C5.1,16.025 4.7,15.725 4.7,15.225 L4.7,10.325 C4.7,9.925 5,9.525 5.5,9.525 L7.3,9.525 L7.3,16.025 Z"></path>
                <path d="M22.6,16.025 L24.4,16.025 C24.8,16.025 25.2,15.725 25.2,15.225 L25.2,10.325 C25.2,9.925 24.9,9.525 24.4,9.525 L22.6,9.525 L22.6,16.025 Z"></path>
            </g>
        </g>
    </g>
</svg>