<?xml version="1.0" encoding="UTF-8"?>
<svg width="32px" height="32px" viewBox="0 0 32 32" version="1.1" xmlns="http://www.w3.org/2000/svg" xmlns:xlink="http://www.w3.org/1999/xlink">
    <title>income</title>
    <defs>
        <polygon id="path-1" points="0 0 29.6706 0 29.6706 29.485 0 29.485"></polygon>
    </defs>
    <g id="🧠-Symbols" stroke="none" stroke-width="1" fill="none" fill-rule="evenodd">
        <g id="income">
            <rect id="boundbox" fill="#333333" opacity="0" x="0" y="0" width="32" height="32"></rect>
            <g id="Group-6" transform="translate(1.164700, 1.257500)">
                <g id="Group-3">
                    <mask id="mask-2" fill="white">
                        <use xlink:href="#path-1"></use>
                    </mask>
                    <g id="Clip-2"></g>
                    <path d="M27.817,25.776 C27.817,26.797 26.984,27.63 25.962,27.63 L5.563,27.63 C3.517,27.63 1.854,25.965 1.854,23.921 L1.854,12.085 C1.854,10.04 3.517,8.376 5.563,8.376 L7.684,8.376 C7.799,9.024 7.995,9.648 8.275,10.231 L6.49,10.231 C5.978,10.231 5.563,10.646 5.563,11.158 C5.563,11.67 5.978,12.085 6.49,12.085 L26.889,12.085 C27.4,12.085 27.817,12.501 27.817,13.012 L27.817,25.776 Z M14.769,1.892 C17.482,1.892 19.673,3.927 20.009,6.522 C20.009,6.522 20.009,6.522 20.009,6.522 C20.038,6.747 20.077,6.968 20.077,7.2 C20.077,7.429 20.054,7.653 20.026,7.875 C20.007,8.012 19.982,8.148 19.954,8.282 C19.809,8.986 19.539,9.649 19.151,10.231 L16.529,10.231 C16.563,10.199 16.602,10.171 16.633,10.137 C16.808,9.948 16.943,9.731 17.037,9.488 C17.132,9.245 17.179,8.986 17.179,8.714 C17.179,8.306 17.082,7.958 16.887,7.675 C16.708,7.415 16.483,7.193 16.214,7.011 C15.959,6.839 15.683,6.694 15.386,6.575 C15.117,6.467 14.868,6.359 14.639,6.249 C14.431,6.149 14.261,6.039 14.129,5.919 C14.042,5.841 14.002,5.751 14.002,5.629 C14.002,5.552 14.019,5.482 14.054,5.415 C14.092,5.34 14.147,5.273 14.219,5.211 C14.291,5.15 14.379,5.101 14.484,5.065 C14.593,5.028 14.715,5.009 14.852,5.009 C15.071,5.009 15.259,5.044 15.416,5.111 C15.554,5.171 15.67,5.226 15.762,5.278 L15.847,5.328 C16.134,5.51 16.439,5.486 16.644,5.243 L16.707,5.154 L16.848,4.889 C16.922,4.742 16.951,4.6 16.933,4.462 C16.91,4.29 16.809,4.147 16.647,4.048 C16.523,3.96 16.332,3.856 16.089,3.745 L15.927,3.679 L15.805,3.639 C15.723,3.615 15.638,3.596 15.55,3.58 L15.443,3.564 L15.444,3.27 C15.444,2.967 15.269,2.745 14.98,2.69 L14.862,2.679 L14.76,2.677 C14.435,2.677 14.201,2.864 14.15,3.174 L14.141,3.281 L14.14,3.599 L14,3.637 C13.867,3.679 13.74,3.73 13.619,3.792 C13.379,3.916 13.171,4.07 12.999,4.253 C12.824,4.439 12.688,4.652 12.59,4.89 C12.491,5.132 12.442,5.385 12.442,5.647 C12.442,6.045 12.54,6.384 12.737,6.659 C12.917,6.909 13.143,7.123 13.412,7.298 C13.664,7.461 13.936,7.605 14.229,7.728 C14.498,7.842 14.747,7.956 14.975,8.072 C15.183,8.177 15.352,8.294 15.484,8.421 C15.576,8.509 15.618,8.609 15.618,8.741 C15.618,8.843 15.599,8.929 15.562,9.001 C15.523,9.077 15.472,9.139 15.407,9.189 C15.333,9.246 15.247,9.289 15.148,9.321 C15.045,9.354 14.935,9.37 14.815,9.37 C14.681,9.37 14.554,9.356 14.435,9.328 C14.31,9.299 14.197,9.262 14.096,9.218 C13.99,9.172 13.896,9.124 13.815,9.074 L13.734,9.022 L13.609,8.932 C13.317,8.74 13.023,8.742 12.803,8.953 L12.733,9.033 L12.565,9.271 C12.334,9.555 12.377,9.905 12.679,10.138 L12.805,10.231 L10.339,10.231 C9.962,9.658 9.701,9.006 9.567,8.31 C9.544,8.194 9.525,8.077 9.509,7.96 C9.483,7.747 9.461,7.534 9.461,7.315 C9.461,7.045 9.487,6.782 9.526,6.522 C9.908,3.944 12.111,1.892 14.769,1.892 L14.769,1.892 Z M24.108,9.303 L24.108,10.231 L21.284,10.231 C21.557,9.649 21.747,9.025 21.858,8.376 L23.18,8.376 C23.691,8.376 24.108,8.792 24.108,9.303 L24.108,9.303 Z M26.889,10.231 L25.962,10.231 L25.962,9.303 C25.962,7.767 24.716,6.522 23.18,6.522 L21.934,6.522 C21.589,2.896 18.512,0 14.769,0 C11.027,0 7.949,2.896 7.604,6.522 L5.563,6.522 C2.49,6.522 0,9.012 0,12.085 L0,23.921 C0,26.993 2.49,29.485 5.563,29.485 L25.962,29.485 C28.01,29.485 29.671,27.825 29.671,25.776 L29.671,13.012 C29.671,11.476 28.425,10.231 26.889,10.231 L26.889,10.231 Z" id="Fill-1" fill="#333333" mask="url(#mask-2)"></path>
                </g>
                <path d="M22.2525,16.5026 C21.2295,16.5026 20.3985,17.3326 20.3985,18.3576 C20.3985,19.3816 21.2295,20.2116 22.2525,20.2116 C23.2765,20.2116 24.1075,19.3816 24.1075,18.3576 C24.1075,17.3326 23.2765,16.5026 22.2525,16.5026" id="Fill-4" fill="#333333"></path>
            </g>
        </g>
    </g>
</svg>