<?xml version="1.0" encoding="UTF-8"?>
<svg width="32px" height="32px" viewBox="0 0 32 32" version="1.1" xmlns="http://www.w3.org/2000/svg" xmlns:xlink="http://www.w3.org/1999/xlink">
    <title>people</title>
    <g id="🧠-Symbols" stroke="none" stroke-width="1" fill="none" fill-rule="evenodd">
        <g id="people" fill="#333333">
            <rect id="boundbox" opacity="0" x="0" y="0" width="32" height="32"></rect>
            <g transform="translate(1.298429, 0.800000)" fill-rule="nonzero">
                <path d="M5.8,18.3 L5.1,18.3 C2.3,18.3 1.77635684e-15,20.6 1.77635684e-15,23.4 L1.77635684e-15,29.4 C1.77635684e-15,30 0.5,30.4 1,30.4 L9.9,30.4 C10.5,30.4 10.9,29.9 10.9,29.4 L10.9,23.4 C10.9,20.6 8.6,18.3 5.8,18.3 Z M9.2,28.7 L1.6,28.7 L1.6,23.4 C1.6,21.5 3.1,20 5,20 L5.7,20 C7.6,20 9.1,21.5 9.1,23.4 L9.1,28.7 L9.2,28.7 Z" id="Shape"></path>
                <path d="M5.4,10 C2.9,10 0.9,12 0.9,14.5 C0.9,17 2.9,19 5.4,19 C7.9,19 9.9,17 9.9,14.5 C9.9,12 7.9,10 5.4,10 Z M5.4,17.3 C3.8,17.3 2.6,16 2.6,14.5 C2.6,12.9 3.9,11.7 5.4,11.7 C6.9,11.7 8.2,13 8.2,14.5 C8.2,16 7,17.3 5.4,17.3 Z" id="Shape"></path>
                <path d="M4.6,17.2 L4.6,20.1 C4.8,20.1 4.9,20.1 5.1,20.1 L5.8,20.1 C6,20.1 6.1,20.1 6.3,20.1 L6.3,17.2 C6,17.2 5.7,17.3 5.4,17.3 C5.1,17.3 4.8,17.2 4.6,17.2 Z" id="Path"></path>
                <path d="M24.3,18.3 L23.6,18.3 C20.8,18.3 18.5,20.6 18.5,23.4 L18.5,29.4 C18.5,30 19,30.4 19.5,30.4 L28.4,30.4 C29,30.4 29.4,29.9 29.4,29.4 L29.4,23.4 C29.5,20.6 27.2,18.3 24.3,18.3 Z M27.8,28.7 L20.2,28.7 L20.2,23.4 C20.2,21.5 21.7,20 23.6,20 L24.3,20 C26.2,20 27.7,21.5 27.7,23.4 L27.7,28.7 L27.8,28.7 Z" id="Shape"></path>
                <path d="M15,18.3 L14.3,18.3 C11.5,18.3 9.2,20.6 9.2,23.4 L9.2,29.4 C9.2,30 9.7,30.4 10.2,30.4 L19.1,30.4 C19.7,30.4 20.1,29.9 20.1,29.4 L20.1,23.4 C20.2,20.6 17.9,18.3 15,18.3 Z M18.5,28.7 L10.9,28.7 L10.9,23.4 C10.9,21.5 12.4,20 14.3,20 L15,20 C16.9,20 18.4,21.5 18.4,23.4 L18.4,28.7 L18.5,28.7 Z" id="Shape"></path>
                <path d="M24,10 C21.5,10 19.5,12 19.5,14.5 C19.5,17 21.5,19 24,19 C26.5,19 28.5,17 28.5,14.5 C28.5,12 26.5,10 24,10 Z M24,17.3 C22.4,17.3 21.2,16 21.2,14.5 C21.2,12.9 22.5,11.7 24,11.7 C25.5,11.7 26.8,13 26.8,14.5 C26.8,16 25.5,17.3 24,17.3 Z" id="Shape"></path>
                <path d="M21.3,8.6 C22.8,7.9 23.9,6.3 23.9,4.5 C23.9,2 21.9,0 19.4,0 C16.9,0 14.9,2 14.9,4.5 C14.9,6.3 16,7.8 17.5,8.6 C16,9.1 14.8,10.3 14.3,11.7 C14.5,11.7 14.7,11.6 14.9,11.6 C15.3,11.6 15.7,11.7 16.1,11.9 C16.7,10.8 17.8,10 19.2,10 L19.7,10 C21.1,10 22.2,10.8 22.8,12 C23.2,11.8 23.6,11.7 24,11.7 C24.2,11.7 24.3,11.7 24.5,11.8 C24,10.2 22.8,9.1 21.3,8.6 Z M19.3,7.3 C17.7,7.3 16.5,6 16.5,4.5 C16.5,3 17.8,1.7 19.3,1.7 C20.8,1.7 22.1,3 22.1,4.5 C22.1,6 20.9,7.3 19.3,7.3 Z" id="Shape"></path>
                <path d="M14.7,10 C12.2,10 10.2,12 10.2,14.5 C10.2,17 12.2,19 14.7,19 C17.2,19 19.2,17 19.2,14.5 C19.2,12 17.2,10 14.7,10 Z M14.7,17.3 C13.1,17.3 11.9,16 11.9,14.5 C11.9,12.9 13.2,11.7 14.7,11.7 C16.3,11.7 17.5,13 17.5,14.5 C17.5,16 16.2,17.3 14.7,17.3 Z" id="Shape"></path>
                <path d="M13.5,11.9 C13.9,11.7 14.3,11.6 14.7,11.6 C14.9,11.6 15.1,11.6 15.3,11.7 C14.7,10.2 13.5,9.1 12,8.6 C13.5,7.9 14.6,6.3 14.6,4.5 C14.6,2 12.6,0 10.1,0 C7.6,0 5.6,2 5.6,4.5 C5.6,6.3 6.7,7.8 8.2,8.6 C6.6,9.1 5.4,10.2 4.9,11.7 C5.1,11.7 5.3,11.6 5.5,11.6 C5.9,11.6 6.3,11.7 6.7,11.9 C7.3,10.8 8.4,10 9.8,10 L10.5,10 C11.8,10 12.9,10.8 13.5,11.9 Z M10,7.3 C8.4,7.3 7.2,6 7.2,4.5 C7.2,3 8.5,1.7 10,1.7 C11.5,1.7 12.8,3 12.8,4.5 C12.8,6 11.6,7.3 10,7.3 Z" id="Shape"></path>
            </g>
        </g>
    </g>
</svg>