<?xml version="1.0" encoding="UTF-8"?>
<svg width="32px" height="32px" viewBox="0 0 32 32" version="1.1" xmlns="http://www.w3.org/2000/svg" xmlns:xlink="http://www.w3.org/1999/xlink">
    <title>race</title>
    <g id="🧠-Symbols" stroke="none" stroke-width="1" fill="none" fill-rule="evenodd">
        <g id="race" fill="#333333">
            <rect id="boundbox" opacity="0" x="0" y="0" width="32" height="32"></rect>
            <g transform="translate(0.327028, 0.350000)" fill-rule="nonzero" id="Shape">
                <path d="M21.7,8.7 L20.6,10.3 C20.1,11.1 20.1,12.1 20.6,12.9 C21.3,12.3 22,12.5 22,12.5 C22.1,12.2 22.1,11.9 22.2,11.6 C22.2,11.6 22.2,11.6 22.2,11.6 C22.5,10.8 22.9,10.2 23.4,9.8 C23.4,9.8 23.4,9.8 23.4,9.8 L23.4,9.8 C23.8,9.5 24.1,9.4 24.5,9.2 L24.6,9.2 C24.6,9.2 24.6,9.2 24.6,9.2 C25.7,8.9 26.7,9.1 26.7,9.1 C24.7,3.8 19.7,0 13.7,0 C6.2,0 0,6.2 0,13.9 C0,21.6 6.2,27.8 13.9,27.8 C14.9,27.8 15.9,27.7 16.9,27.5 L16.9,25.6 C16.9,24.1 17.5,22.7 18.4,21.7 L18.4,21.6 C18.4,21.6 18.4,21.5 18.6,21.3 L19,20.9 C18.5,20.4 18.2,19.7 17.9,19 C17.8,19.1 17.8,19.2 17.7,19.3 L17.1,19.9 C16.9,20.1 16.6,20.6 16.5,20.9 L16.4,21.2 C16.4,21.4 16.3,21.6 16.2,21.8 L14.7,25.7 C14.2,25.7 13.6,25.7 13,25.7 L13,24.5 C13.1,23.4 12.5,21.8 11.5,20.8 C11.4,20.7 11.3,20.5 11.3,20.3 L11.3,18.5 C11.3,17.5 10.8,16.6 9.9,16.1 C9.5,15.9 8.1,15.1 7.2,14.6 C6.6,14.3 6.1,14 5.6,13.5 C5.3,13.3 5,12.8 4.8,12.5 C4.3,11.7 3.4,10.5 2.9,9.7 C4.3,5.9 7.7,3.1 11.6,2.3 L14.3,5 L13.6,5.7 C13.1,6.2 13,6.9 13.4,7.5 L13.3,7.5 C12.9,7.5 12.6,7.6 12.3,7.9 L11.8,8.4 C11.3,8.8 11.2,9.5 11.5,10.1 L11.6,10.3 C11.3,10.2 10.9,10.2 10.6,10.4 L8.7,11 C8.1,11.2 7.6,11.9 7.6,12.6 C7.6,13.2 8,13.8 8.5,14.1 L9.1,14.4 C9.7,14.7 10.4,14.9 11,14.9 C11.1,15 11.3,15.3 11.4,15.5 C11.7,16 12.1,16.4 12.5,16.6 L12.7,16.7 L16.7,16.7 C16.9,16.7 17.1,16.8 17.2,16.9 L17.7,17.4 C17.7,16.6 17.9,15.8 18.3,15.2 C17.8,14.9 17.3,14.7 16.7,14.7 L13.4,14.7 C13.3,14.6 13.2,14.5 13.1,14.3 L13.1,14.3 C12.6,13.7 12.1,12.9 11.2,12.9 C10.8,12.9 10.5,12.8 10.1,12.7 L11,12.4 L11.5,12.8 C11.8,13 12.1,13.2 12.5,13.2 L12.7,13.2 C13.2,13.2 13.7,12.9 13.9,12.5 C14.2,12.1 14.2,11.5 14,11.1 L13.3,9.7 L13.4,9.6 L13.7,9.6 C14.1,9.6 14.5,9.4 14.7,9.2 L15.1,8.8 C15.6,8.2 15.7,7.4 15.3,6.8 L15.7,6.3 C16.1,5.9 16.3,5.5 16.3,5 C16.3,4.5 16.1,4 15.7,3.7 L14.1,2.1 C18,2.2 21.6,4.2 23.8,7.4 L22.7,8 C22.3,8.1 21.9,8.4 21.7,8.7 Z M3,13.6 C3.3,14.1 3.7,14.5 4.2,15 C4.8,15.5 5.5,16 6.2,16.4 C7.2,16.8 8.5,17.6 8.9,17.8 C9.1,17.9 9.3,18.2 9.3,18.5 L9.3,20.3 C9.3,21 9.6,21.7 10.1,22.3 C10.8,23 11.1,24 11.1,24.4 L11.1,25.5 C5.8,24.2 2,19.4 2,14 C2,13.5 2,13 2.1,12.4 C2.5,12.8 2.8,13.3 3,13.6 Z"></path>
                <path d="M28.6,17.6 C29.9,16.9 30.7,15.6 30.7,14.1 C30.7,11.9 28.9,10.1 26.7,10.1 C24.7,10.1 23,11.6 22.7,13.5 C22.7,13.5 22.6,13.5 22.6,13.5 C20.4,13.5 18.6,15.3 18.6,17.5 C18.6,19 19.5,20.4 20.7,21 C19,21.7 17.7,23.5 17.7,25.5 L17.7,30.3 C17.7,30.9 18.2,31.3 18.7,31.3 L26.3,31.3 C26.9,31.3 27.3,30.8 27.3,30.3 L27.3,27.9 L30.3,27.9 C30.9,27.9 31.3,27.4 31.3,26.9 L31.3,22.1 C31.6,20.1 30.4,18.3 28.6,17.6 Z M26.8,11.7 C28.1,11.7 29.1,12.7 29.1,14 C29.1,15.3 28.1,16.3 26.8,16.3 C26.7,16.3 26.7,16.3 26.6,16.3 C26.3,15.2 25.5,14.3 24.5,13.8 C24.6,12.7 25.5,11.7 26.8,11.7 Z M20.4,17.5 C20.4,16.2 21.4,15.2 22.7,15.2 C22.8,15.2 22.8,15.2 22.9,15.2 L22.9,15.2 C23.3,15.2 23.8,15.4 24.1,15.7 C24.1,15.7 24.1,15.7 24.1,15.7 C24.2,15.8 24.3,15.9 24.4,16 C24.4,16 24.4,16 24.5,16.1 C24.6,16.2 24.6,16.3 24.7,16.4 C24.7,16.4 24.8,16.5 24.8,16.5 C24.8,16.6 24.9,16.7 24.9,16.7 C24.9,16.8 25,16.9 25,16.9 C25,17 25,17 25.1,17.1 C25.1,17.2 25.1,17.4 25.1,17.6 C25.1,18.9 24.1,19.9 22.8,19.9 C22.7,19.9 22.7,19.9 22.6,19.9 L22.6,19.9 C21.3,19.7 20.4,18.7 20.4,17.5 Z M25.9,29.7 L19.6,29.7 L19.6,25.5 C19.6,24 20.6,22.8 22,22.5 C22.1,22.5 22.2,22.5 22.3,22.4 C22.5,22.4 22.6,22.4 22.8,22.4 C23,22.4 23.1,22.4 23.3,22.5 C23.4,22.5 23.6,22.6 23.7,22.6 L23.7,22.6 C25,23 25.9,24.2 25.9,25.6 L25.9,26.4 L25.9,28.1 L25.9,29.7 L25.9,29.7 Z M29.9,26.2 L27.5,26.2 L27.5,25.4 C27.5,23.4 26.3,21.7 24.5,20.9 C25.3,20.5 26,19.7 26.3,18.8 C26.4,18.8 26.5,18.8 26.6,18.8 C28.3,18.8 29.8,20.2 29.8,22 L29.8,26.2 L29.9,26.2 Z"></path>
            </g>
        </g>
    </g>
</svg>